<?xml version="1.0" encoding="UTF-8" standalone="no"?>
<svg
   xmlns:dc="http://purl.org/dc/elements/1.1/"
   xmlns:cc="http://creativecommons.org/ns#"
   xmlns:rdf="http://www.w3.org/1999/02/22-rdf-syntax-ns#"
   xmlns:svg="http://www.w3.org/2000/svg"
   xmlns="http://www.w3.org/2000/svg"
   xmlns:sodipodi="http://sodipodi.sourceforge.net/DTD/sodipodi-0.dtd"
   xmlns:inkscape="http://www.inkscape.org/namespaces/inkscape"
   version="1.1"
   id="svg2"
   xml:space="preserve"
   width="775.82532"
   height="775.82532"
   viewBox="0 0 775.82532 775.82532"
   sodipodi:docname="oppav1.svg"
   inkscape:version="1.0.2-2 (e86c870879, 2021-01-15)"
   inkscape:export-filename="C:\TEMP\OPPA\oppa-images\512.png"
   inkscape:export-xdpi="63.354469"
   inkscape:export-ydpi="63.354469"><metadata
     id="metadata8"><rdf:RDF><cc:Work
         rdf:about=""><dc:format>image/svg+xml</dc:format><dc:type
           rdf:resource="http://purl.org/dc/dcmitype/StillImage" /><dc:title></dc:title></cc:Work></rdf:RDF></metadata><defs
     id="defs6"><linearGradient
       x1="0"
       y1="0"
       x2="1"
       y2="0"
       gradientUnits="userSpaceOnUse"
       gradientTransform="matrix(4136.86,4594.45,4594.45,-4136.86,16100.2,15793)"
       spreadMethod="pad"
       id="linearGradient24"><stop
         style="stop-opacity:1;stop-color:#ececde"
         offset="0"
         id="stop16" /><stop
         style="stop-opacity:1;stop-color:#eaebdc"
         offset="0.715054"
         id="stop18" /><stop
         style="stop-opacity:1;stop-color:#cfcdc1"
         offset="0.88172"
         id="stop20" /><stop
         style="stop-opacity:1;stop-color:#a49f96"
         offset="1"
         id="stop22" /></linearGradient><linearGradient
       x1="0"
       y1="0"
       x2="1"
       y2="0"
       gradientUnits="userSpaceOnUse"
       gradientTransform="matrix(396.279,809.231,809.231,-396.279,19347.6,20399.4)"
       spreadMethod="pad"
       id="linearGradient38"><stop
         style="stop-opacity:1;stop-color:#82878f"
         offset="0"
         id="stop28" /><stop
         style="stop-opacity:1;stop-color:#82878f"
         offset="0.23"
         id="stop30" /><stop
         style="stop-opacity:1;stop-color:#f1f3f4"
         offset="0.45"
         id="stop32" /><stop
         style="stop-opacity:1;stop-color:#9ba0a8"
         offset="0.56"
         id="stop34" /><stop
         style="stop-opacity:1;stop-color:#bfbfc6"
         offset="1"
         id="stop36" /></linearGradient></defs><sodipodi:namedview
     pagecolor="#49844d"
     bordercolor="#666666"
     borderopacity="1"
     objecttolerance="10"
     gridtolerance="10"
     guidetolerance="10"
     inkscape:pageopacity="0"
     inkscape:pageshadow="2"
     inkscape:window-width="1920"
     inkscape:window-height="1018"
     id="namedview4"
     inkscape:document-rotation="0"
     showgrid="false"
     inkscape:zoom="0.84666536"
     inkscape:cx="522.84686"
     inkscape:cy="388.50728"
     inkscape:window-x="2729"
     inkscape:window-y="-6"
     inkscape:window-maximized="1"
     inkscape:current-layer="g12"
     fit-margin-top="0"
     fit-margin-left="0"
     fit-margin-right="0"
     fit-margin-bottom="0"
     inkscape:pagecheckerboard="true" /><g
     id="g10"
     inkscape:groupmode="layer"
     inkscape:label="ink_ext_XXXXXX"
     transform="matrix(1.3333333,0,0,-1.3333333,-1123.708,1852.04)"><g
       id="g12"
       transform="scale(0.1)"><path
         d="m 12208.2,9995.7 c 1375.7,927.6 967,2676.9 -151.1,3148.2 1241.2,-411 1851.9,-1990.8 1036.1,-3148.2 z m -1742.1,0 h -884.95 c -815.82,1157.4 -205.08,2737.2 1036.15,3148.2 -1118.13,-471.3 -1526.82,-2220.6 -151.2,-3148.2 z m 2552.1,-911.6 c 422.7,145.5 831.4,580.8 1228.3,1255 -419.3,-259.9 -834.8,-488 -1228.3,-534.4 h -822.7 c -301.6,0 -548.3,-246.7 -548.3,-548.3 v -99.2 c 0,-40.2 32.9,-73.1 73.1,-73.1 z m -3362.06,0 c -422.76,145.5 -831.37,580.8 -1228.33,1255 419.35,-259.9 834.84,-488 1228.33,-534.4 h 822.66 c 301.6,0 548.3,-246.7 548.3,-548.3 v -99.2 c 0,-40.2 -32.9,-73.1 -73.1,-73.1 z m 3244.26,2347.3 c 198.3,2344.5 -3324.77,2344.5 -3126.44,0 134.92,578.457 481.782,964.276 899.422,1157.456 836.456,386.906 1956.825,1.087 2227.018,-1157.456 v 0"
         style="fill:#181813;fill-opacity:1;fill-rule:evenodd;stroke:none"
         id="path48"
         sodipodi:nodetypes="cccccccccccssssccccsssscccssc" /><path
         d="m 8802.86,10255.1 c -96.12,276.2 -148.49,572.9 -148.49,881.8 0,1069.2 625.54,1992.3 1530.53,2423.4 -675.93,-396.2 -1129.94,-1130.2 -1129.94,-1970.3 0,-137 12.11,-271.2 35.26,-401.6 -3.14,-232.3 31.02,-467.4 106.92,-696.6 59.6,-180 145.02,-356.4 258.38,-524.8 -115.82,32.1 -233.94,78.1 -353.69,133.6 -98.96,45.9 -198.71,98.1 -298.97,154.5 z m 4107.94,-1291 c -442,-320.7 -985.7,-510 -1573.6,-510 -588,0 -1131.6,189.3 -1573.68,510 H 10954 c 52.9,0 101.1,21.7 136,56.7 h 0.5 c 34.9,34.9 56.6,83.2 56.6,136.4 v 99.2 c 0,20.1 -0.9,40 -2.6,59.6 63.5,-5.3 127.8,-8.2 192.7,-8.2 64.9,0 129.1,2.9 192.6,8.2 -1.7,-19.6 -2.6,-39.5 -2.6,-59.6 v -99.2 c 0,-53.2 21.7,-101.5 56.6,-136.4 h 0.5 c 34.9,-35 83.1,-56.7 136,-56.7 z m -421.4,4596.2 c 905,-431.1 1530.6,-1354.2 1530.6,-2423.4 0,-308.9 -52.4,-605.6 -148.5,-881.8 -100.3,-56.4 -200,-108.6 -299,-154.5 -119.7,-55.5 -237.9,-101.5 -353.7,-133.6 113.4,168.4 198.8,344.8 258.4,524.8 75.9,229.2 110,464.3 106.9,696.6 23.2,130.4 35.3,264.6 35.3,401.6 0,840.1 -454,1574.1 -1130,1970.3 v 0"
         style="fill:#188e13;fill-opacity:1;fill-rule:evenodd;stroke:none"
         id="path50" /></g></g></svg>
